<?xml version="1.0" encoding="UTF-8"?>
<!DOCTYPE svg PUBLIC "-//W3C//DTD SVG 1.1//EN" "http://www.w3.org/Graphics/SVG/1.1/DTD/svg11.dtd">
<svg xmlns="http://www.w3.org/2000/svg" version="1.1" width="353px" height="1982px" style="shape-rendering:geometricPrecision; text-rendering:geometricPrecision; image-rendering:optimizeQuality; fill-rule:evenodd; clip-rule:evenodd" xmlns:xlink="http://www.w3.org/1999/xlink">
<g><path style="opacity:0.985" fill="#0052f4" d="M 220.5,0.5 C 251.211,-3.23494 273.044,8.76506 286,36.5C 294.645,61.8079 294.645,87.1412 286,112.5C 277.545,132.123 263.378,145.789 243.5,153.5C 241.372,152.946 239.872,151.613 239,149.5C 233.293,139.252 227.46,129.085 221.5,119C 246.387,108.408 256.554,89.5742 252,62.5C 249.073,43.8018 238.906,37.6352 221.5,44C 216.026,49.108 212.193,55.2746 210,62.5C 205.399,77.6366 200.399,92.6366 195,107.5C 181.34,140.245 157.174,152.078 122.5,143C 98.3966,132.874 84.8966,114.707 82,88.5C 78.4687,50.5496 93.4687,22.8829 127,5.5C 134.211,16.7523 141.044,28.2523 147.5,40C 127.087,49.3204 118.587,65.1537 122,87.5C 127.503,104.224 138.003,108.39 153.5,100C 157.905,94.0261 161.405,87.5261 164,80.5C 168.939,65.0165 174.272,49.6831 180,34.5C 187.992,16.3216 201.492,4.98822 220.5,0.5 Z"/></g>
<g><path style="opacity:0.978" fill="#0052f4" d="M 85.5,159.5 C 98.5,159.5 111.5,159.5 124.5,159.5C 124.5,177.5 124.5,195.5 124.5,213.5C 179.167,213.5 233.833,213.5 288.5,213.5C 288.5,227.167 288.5,240.833 288.5,254.5C 233.833,254.5 179.167,254.5 124.5,254.5C 124.5,272.833 124.5,291.167 124.5,309.5C 111.5,309.5 98.5,309.5 85.5,309.5C 85.5,259.5 85.5,209.5 85.5,159.5 Z"/></g>
<g><path style="opacity:0.987" fill="#0052f4" d="M 287.5,297.5 C 288.826,312.339 288.826,327.339 287.5,342.5C 275.946,346.407 264.446,350.407 253,354.5C 252.5,381.165 252.333,407.831 252.5,434.5C 264.5,438.167 276.5,441.833 288.5,445.5C 288.667,460.504 288.5,475.504 288,490.5C 220.888,466.74 153.721,443.073 86.5,419.5C 85.5005,402.513 85.1672,385.513 85.5,368.5C 153.103,345.354 220.436,321.687 287.5,297.5 Z M 211.5,367.5 C 212.5,367.5 213.5,367.5 214.5,367.5C 214.667,385.503 214.5,403.503 214,421.5C 187.332,411.944 160.499,402.777 133.5,394C 159.709,385.431 185.709,376.598 211.5,367.5 Z"/></g>
<g><path style="opacity:0.984" fill="#0053f3" d="M 249.5,502.5 C 262.5,502.5 275.5,502.5 288.5,502.5C 288.5,544.5 288.5,586.5 288.5,628.5C 220.833,628.5 153.167,628.5 85.5,628.5C 85.5,587.167 85.5,545.833 85.5,504.5C 98.5,504.5 111.5,504.5 124.5,504.5C 124.5,532.167 124.5,559.833 124.5,587.5C 138.5,587.5 152.5,587.5 166.5,587.5C 166.5,562.167 166.5,536.833 166.5,511.5C 179.5,511.5 192.5,511.5 205.5,511.5C 205.5,536.833 205.5,562.167 205.5,587.5C 220.167,587.5 234.833,587.5 249.5,587.5C 249.5,559.167 249.5,530.833 249.5,502.5 Z"/></g>
<g><path style="opacity:0.985" fill="#0052f4" d="M 222.5,652.5 C 263.328,651.817 286.495,671.817 292,712.5C 294.383,731.466 292.05,749.8 285,767.5C 276.213,786.319 262.046,799.319 242.5,806.5C 235.374,795.083 228.374,783.583 221.5,772C 246.201,760.773 256.368,741.606 252,714.5C 248.498,695.671 237.998,689.837 220.5,697C 215.512,703.137 211.679,709.971 209,717.5C 204.864,730.906 200.531,744.24 196,757.5C 181.52,793.45 155.686,805.617 118.5,794C 97.0195,783.154 84.8528,765.654 82,741.5C 78.4695,703.548 93.4695,675.881 127,658.5C 133.947,669.554 140.781,680.721 147.5,692C 124.046,704.07 116.546,722.57 125,747.5C 131.913,757.436 140.746,759.603 151.5,754C 154.04,751.795 156.207,749.295 158,746.5C 165.393,727.654 172.393,708.654 179,689.5C 186.727,668.921 201.227,656.588 222.5,652.5 Z"/></g>
<g><path style="opacity:0.984" fill="#0052f4" d="M 286.5,803.5 C 287.831,810.97 288.498,818.804 288.5,827C 288.333,834.833 288.167,842.667 288,850.5C 257.167,874 226.333,897.5 195.5,921C 226.498,921.5 257.498,921.667 288.5,921.5C 288.5,935.167 288.5,948.833 288.5,962.5C 220.833,962.5 153.167,962.5 85.5,962.5C 85.5,948.833 85.5,935.167 85.5,921.5C 114.835,921.667 144.169,921.5 173.5,921C 144.333,898.5 115.167,876 86,853.5C 85.1671,837.823 85.3338,822.156 86.5,806.5C 119.167,831.167 151.833,855.833 184.5,880.5C 218.568,854.813 252.568,829.146 286.5,803.5 Z"/></g>
<g><path style="opacity:0.984" fill="#0052f4" d="M 128.5,985.5 C 136.083,996.472 143.083,1007.97 149.5,1020C 125.317,1037.86 116.483,1061.69 123,1091.5C 132.931,1122.48 154.265,1138.15 187,1138.5C 215.356,1138.5 235.689,1125.83 248,1100.5C 259.114,1067.87 251.281,1041.03 224.5,1020C 230.949,1008.27 237.782,996.768 245,985.5C 276.387,1006.43 292.22,1035.93 292.5,1074C 292.008,1119.33 271.341,1151.67 230.5,1171C 194.373,1184.39 159.706,1181.39 126.5,1162C 90.616,1135.04 76.116,1099.2 83,1054.5C 88.4897,1024.89 103.656,1001.89 128.5,985.5 Z"/></g>
<g><path style="opacity:0.987" fill="#0053f4" d="M 286.5,1181.5 C 287.831,1188.47 288.497,1195.8 288.5,1203.5C 288.333,1210.83 288.167,1218.17 288,1225.5C 276.554,1229.59 265.054,1233.59 253.5,1237.5C 252.333,1264.16 252.167,1290.83 253,1317.5C 264.446,1321.59 275.946,1325.59 287.5,1329.5C 288.499,1344.15 288.833,1358.82 288.5,1373.5C 220.833,1350.17 153.167,1326.83 85.5,1303.5C 85.1747,1286.26 85.5081,1269.09 86.5,1252C 153.378,1228.76 220.045,1205.26 286.5,1181.5 Z M 212.5,1250.5 C 213.832,1259.14 214.498,1268.14 214.5,1277.5C 214.167,1286.5 213.833,1295.5 213.5,1304.5C 187.204,1295.57 160.87,1286.73 134.5,1278C 160.603,1268.91 186.603,1259.74 212.5,1250.5 Z"/></g>
<g><path style="opacity:0.99" fill="#0053f3" d="M 226.5,1380.5 C 261.164,1381.75 281.664,1399.41 288,1433.5C 288.5,1465.83 288.667,1498.16 288.5,1530.5C 220.833,1530.5 153.167,1530.5 85.5,1530.5C 85.3334,1500.83 85.5,1471.16 86,1441.5C 89.5963,1415.57 103.763,1398.41 128.5,1390C 149.953,1385.07 168.12,1390.57 183,1406.5C 193.179,1390.5 207.679,1381.83 226.5,1380.5 Z M 222.5,1421.5 C 236.481,1420.39 245.647,1426.39 250,1439.5C 250.5,1456.16 250.667,1472.83 250.5,1489.5C 234.833,1489.5 219.167,1489.5 203.5,1489.5C 203.072,1472.12 203.572,1454.79 205,1437.5C 207.882,1428.83 213.715,1423.5 222.5,1421.5 Z M 140.5,1429.5 C 152.587,1427.9 161.087,1432.57 166,1443.5C 167.435,1458.78 167.935,1474.11 167.5,1489.5C 152.833,1489.5 138.167,1489.5 123.5,1489.5C 123.065,1474.11 123.565,1458.78 125,1443.5C 127.852,1436.14 133.019,1431.48 140.5,1429.5 Z"/></g>
<g><path style="opacity:0.986" fill="#0053f4" d="M 352.5,1757.5 C 352.5,1813.17 352.5,1868.83 352.5,1924.5C 342.108,1908.73 331.941,1892.73 322,1876.5C 318.898,1871.63 316.398,1866.63 314.5,1861.5C 314.667,1828.83 314.5,1796.16 314,1763.5C 305.601,1722.93 280.768,1700.93 239.5,1697.5C 230.969,1697.72 222.635,1699.05 214.5,1701.5C 207.571,1690.64 200.904,1679.64 194.5,1668.5C 238.016,1651.81 278.016,1657.97 314.5,1687C 335.223,1706.21 347.889,1729.71 352.5,1757.5 Z"/></g>
<g><path style="opacity:0.982" fill="#0092f4" d="M 75.5,1660.5 C 83.8219,1674.47 92.1553,1688.47 100.5,1702.5C 95.5224,1701.01 90.5224,1699.67 85.5,1698.5C 78.5,1686.5 71.5,1674.5 64.5,1662.5C 67.9458,1661.31 71.6125,1660.65 75.5,1660.5 Z"/></g>
<g><path style="opacity:0.983" fill="#008cf4" d="M 75.5,1660.5 C 79.1667,1660.5 82.8333,1660.5 86.5,1660.5C 112.417,1701.33 138.084,1742.33 163.5,1783.5C 163.5,1790.17 163.5,1796.83 163.5,1803.5C 150.833,1783.5 138.167,1763.5 125.5,1743.5C 124.542,1725.24 116.209,1711.57 100.5,1702.5C 92.1553,1688.47 83.8219,1674.47 75.5,1660.5 Z"/></g>
<g><path style="opacity:0.993" fill="#0086f4" d="M 86.5,1660.5 C 92.333,1660.75 97.9997,1661.75 103.5,1663.5C 103.196,1664.15 102.863,1664.82 102.5,1665.5C 122.941,1698.73 143.608,1731.73 164.5,1764.5C 163.542,1770.74 163.209,1777.08 163.5,1783.5C 138.084,1742.33 112.417,1701.33 86.5,1660.5 Z"/></g>
<g><path style="opacity:0.99" fill="#0098f4" d="M 64.5,1662.5 C 71.5,1674.5 78.5,1686.5 85.5,1698.5C 82.1667,1698.5 78.8333,1698.5 75.5,1698.5C 73.8561,1698.71 72.3561,1698.38 71,1697.5C 64.959,1687.25 58.7923,1677.08 52.5,1667C 53.056,1666.62 53.3893,1666.12 53.5,1665.5C 56.8544,1663.74 60.521,1662.74 64.5,1662.5 Z"/></g>
<g><path style="opacity:0.992" fill="#0080f4" d="M 103.5,1663.5 C 109.635,1664.87 115.302,1667.21 120.5,1670.5C 135.743,1696.41 151.409,1722.08 167.5,1747.5C 166.021,1753.08 165.021,1758.75 164.5,1764.5C 143.608,1731.73 122.941,1698.73 102.5,1665.5C 102.863,1664.82 103.196,1664.15 103.5,1663.5 Z"/></g>
<g><path style="opacity:0.983" fill="#00a1f4" d="M 53.5,1665.5 C 53.3893,1666.12 53.056,1666.62 52.5,1667C 58.7923,1677.08 64.959,1687.25 71,1697.5C 72.3561,1698.38 73.8561,1698.71 75.5,1698.5C 67.4811,1700.17 60.1478,1703.51 53.5,1708.5C 46.8333,1697.5 40.1667,1686.5 33.5,1675.5C 39.6153,1671.11 46.282,1667.78 53.5,1665.5 Z"/></g>
<g><path style="opacity:0.984" fill="#005af4" d="M 194.5,1668.5 C 200.904,1679.64 207.571,1690.64 214.5,1701.5C 211.251,1703.03 207.918,1704.36 204.5,1705.5C 197.695,1694.71 191.362,1683.71 185.5,1672.5C 188.378,1670.89 191.378,1669.56 194.5,1668.5 Z"/></g>
<g><path style="opacity:0.988" fill="#0079f4" d="M 120.5,1670.5 C 132.007,1675.67 141.007,1683.67 147.5,1694.5C 153.977,1705.44 160.477,1716.44 167,1727.5C 168.965,1730.49 171.132,1733.16 173.5,1735.5C 171.467,1739.57 169.467,1743.57 167.5,1747.5C 151.409,1722.08 135.743,1696.41 120.5,1670.5 Z"/></g>
<g><path style="opacity:0.987" fill="#0060f4" d="M 185.5,1672.5 C 191.362,1683.71 197.695,1694.71 204.5,1705.5C 201.506,1708 198.173,1710 194.5,1711.5C 194.611,1710.88 194.944,1710.38 195.5,1710C 188.516,1699.86 182.182,1689.36 176.5,1678.5C 179.291,1676.27 182.291,1674.27 185.5,1672.5 Z"/></g>
<g><path style="opacity:0.985" fill="#00abf3" d="M 33.5,1675.5 C 40.1667,1686.5 46.8333,1697.5 53.5,1708.5C 50.9473,1710.6 48.614,1712.93 46.5,1715.5C 39.8585,1706.24 33.6919,1696.57 28,1686.5C 27.2411,1684.94 26.0744,1683.94 24.5,1683.5C 26.8949,1680.14 29.8949,1677.47 33.5,1675.5 Z"/></g>
<g><path style="opacity:0.984" fill="#0066f4" d="M 176.5,1678.5 C 182.182,1689.36 188.516,1699.86 195.5,1710C 194.944,1710.38 194.611,1710.88 194.5,1711.5C 192.249,1714.29 189.582,1716.63 186.5,1718.5C 179.5,1707.83 172.5,1697.17 165.5,1686.5C 168.601,1683.07 172.268,1680.4 176.5,1678.5 Z"/></g>
<g><path style="opacity:0.988" fill="#00b2f3" d="M 24.5,1683.5 C 26.0744,1683.94 27.2411,1684.94 28,1686.5C 33.6919,1696.57 39.8585,1706.24 46.5,1715.5C 43.9751,1719.22 41.9751,1723.22 40.5,1727.5C 39.5041,1727.59 38.6708,1727.25 38,1726.5C 31.3654,1714.73 24.1987,1703.39 16.5,1692.5C 18.4528,1688.88 21.1195,1685.88 24.5,1683.5 Z"/></g>
<g><path style="opacity:0.994" fill="#006df4" d="M 165.5,1686.5 C 172.5,1697.17 179.5,1707.83 186.5,1718.5C 184.471,1720.86 182.471,1723.19 180.5,1725.5C 179.636,1725.3 178.636,1724.96 177.5,1724.5C 171.667,1714.83 165.833,1705.17 160,1695.5C 159.329,1694.75 158.496,1694.41 157.5,1694.5C 159.833,1691.5 162.5,1688.83 165.5,1686.5 Z"/></g>
<g><path style="opacity:0.984" fill="#00b8f3" d="M 16.5,1692.5 C 24.1987,1703.39 31.3654,1714.73 38,1726.5C 38.6708,1727.25 39.5041,1727.59 40.5,1727.5C 38.5578,1731.94 37.5578,1736.61 37.5,1741.5C 36.603,1742.6 35.7697,1742.6 35,1741.5C 27.0048,1728.02 18.8381,1714.68 10.5,1701.5C 11.7232,1697.95 13.7232,1694.95 16.5,1692.5 Z"/></g>
<g><path style="opacity:0.985" fill="#0073f4" d="M 147.5,1694.5 C 149.451,1695.72 150.951,1697.38 152,1699.5C 153.704,1697.63 155.537,1695.96 157.5,1694.5C 158.496,1694.41 159.329,1694.75 160,1695.5C 165.833,1705.17 171.667,1714.83 177.5,1724.5C 178.636,1724.96 179.636,1725.3 180.5,1725.5C 178.134,1728.86 175.801,1732.19 173.5,1735.5C 171.132,1733.16 168.965,1730.49 167,1727.5C 160.477,1716.44 153.977,1705.44 147.5,1694.5 Z"/></g>
<g><path style="opacity:0.972" fill="#00bef3" d="M 10.5,1701.5 C 18.8381,1714.68 27.0048,1728.02 35,1741.5C 35.7697,1742.6 36.603,1742.6 37.5,1741.5C 37.5,1749.17 37.5,1756.83 37.5,1764.5C 26.0825,1747.34 15.4158,1729.67 5.5,1711.5C 6.13224,1707.57 7.79891,1704.24 10.5,1701.5 Z"/></g>
<g><path style="opacity:0.98" fill="#00c4f2" d="M 5.5,1711.5 C 15.4158,1729.67 26.0825,1747.34 37.5,1764.5C 37.5,1769.83 37.5,1775.17 37.5,1780.5C 36.7784,1780.92 36.2784,1781.58 36,1782.5C 25,1764.5 14,1746.5 3,1728.5C 2.32924,1727.75 1.4959,1727.41 0.5,1727.5C 1.39256,1721.83 3.05922,1716.49 5.5,1711.5 Z"/></g>
<g><path style="opacity:0.991" fill="#0053f3" d="M 289.5,1822.5 C 269.181,1789.87 248.847,1757.2 228.5,1724.5C 251.604,1720.15 269.771,1727.82 283,1747.5C 285.994,1752.82 287.994,1758.48 289,1764.5C 289.5,1783.83 289.667,1803.16 289.5,1822.5 Z"/></g>
<g><path style="opacity:0.989" fill="#005af4" d="M 228.5,1724.5 C 248.847,1757.2 269.181,1789.87 289.5,1822.5C 289.5,1830.17 289.5,1837.83 289.5,1845.5C 278.833,1825.86 267.333,1806.52 255,1787.5C 253.522,1784.84 252.355,1782.18 251.5,1779.5C 252.964,1769.04 248.631,1763.04 238.5,1761.5C 231.816,1750.13 225.15,1738.79 218.5,1727.5C 221.505,1725.72 224.838,1724.72 228.5,1724.5 Z"/></g>
<g><path style="opacity:0.977" fill="#00cbf3" d="M 0.5,1727.5 C 1.4959,1727.41 2.32924,1727.75 3,1728.5C 14,1746.5 25,1764.5 36,1782.5C 36.2784,1781.58 36.7784,1780.92 37.5,1780.5C 37.5,1789.5 37.5,1798.5 37.5,1807.5C 24.8333,1787.5 12.1667,1767.5 -0.5,1747.5C -0.5,1741.5 -0.5,1735.5 -0.5,1729.5C 0.338246,1729.16 0.67158,1728.49 0.5,1727.5 Z"/></g>
<g><path style="opacity:0.988" fill="#0060f4" d="M 218.5,1727.5 C 225.15,1738.79 231.816,1750.13 238.5,1761.5C 234.937,1761.68 231.937,1763.02 229.5,1765.5C 222.997,1754.49 215.997,1743.82 208.5,1733.5C 211.161,1730.5 214.495,1728.5 218.5,1727.5 Z"/></g>
<g><path style="opacity:0.987" fill="#0067f4" d="M 208.5,1733.5 C 215.997,1743.82 222.997,1754.49 229.5,1765.5C 227.041,1769.81 226.041,1774.48 226.5,1779.5C 225.778,1779.92 225.278,1780.58 225,1781.5C 216.571,1768.31 208.405,1754.97 200.5,1741.5C 202.145,1737.86 204.812,1735.19 208.5,1733.5 Z"/></g>
<g><path style="opacity:0.968" fill="#00a4f4" d="M 100.5,1783.5 C 91.1653,1769.47 82.1653,1755.14 73.5,1740.5C 73.0431,1739.7 72.3764,1739.37 71.5,1739.5C 85.1529,1733.3 94.6529,1737.3 100,1751.5C 100.5,1762.16 100.667,1772.83 100.5,1783.5 Z"/></g>
<g><path style="opacity:0.979" fill="#00abf3" d="M 71.5,1739.5 C 72.3764,1739.37 73.0431,1739.7 73.5,1740.5C 82.1653,1755.14 91.1653,1769.47 100.5,1783.5C 100.5,1790.17 100.5,1796.83 100.5,1803.5C 88.5,1784.83 76.5,1766.17 64.5,1747.5C 65.4308,1743.57 67.7641,1740.9 71.5,1739.5 Z"/></g>
<g><path style="opacity:0.981" fill="#006df4" d="M 200.5,1741.5 C 208.405,1754.97 216.571,1768.31 225,1781.5C 225.278,1780.58 225.778,1779.92 226.5,1779.5C 226.5,1786.17 226.5,1792.83 226.5,1799.5C 225.778,1799.92 225.278,1800.58 225,1801.5C 214.725,1784.6 204.225,1767.93 193.5,1751.5C 195.088,1747.59 197.421,1744.26 200.5,1741.5 Z"/></g>
<g><path style="opacity:0.984" fill="#0092f4" d="M 125.5,1743.5 C 138.167,1763.5 150.833,1783.5 163.5,1803.5C 163.5,1810.17 163.5,1816.83 163.5,1823.5C 151.228,1803.23 138.562,1783.23 125.5,1763.5C 125.5,1756.83 125.5,1750.17 125.5,1743.5 Z"/></g>
<g><path style="opacity:0.987" fill="#00d1f3" d="M -0.5,1747.5 C 12.1667,1767.5 24.8333,1787.5 37.5,1807.5C 37.5,1812.83 37.5,1818.17 37.5,1823.5C 36.7784,1823.92 36.2784,1824.58 36,1825.5C 24.0587,1805.93 11.892,1786.6 -0.5,1767.5C -0.5,1760.83 -0.5,1754.17 -0.5,1747.5 Z"/></g>
<g><path style="opacity:0.983" fill="#00b2f2" d="M 64.5,1747.5 C 76.5,1766.17 88.5,1784.83 100.5,1803.5C 100.5,1811.17 100.5,1818.83 100.5,1826.5C 87.8333,1806.5 75.1667,1786.5 62.5,1766.5C 62.3339,1760.82 62.5006,1755.16 63,1749.5C 63.2784,1748.58 63.7784,1747.92 64.5,1747.5 Z"/></g>
<g><path style="opacity:0.985" fill="#0073f4" d="M 193.5,1751.5 C 204.225,1767.93 214.725,1784.6 225,1801.5C 225.278,1800.58 225.778,1799.92 226.5,1799.5C 226.5,1806.17 226.5,1812.83 226.5,1819.5C 225.778,1819.92 225.278,1820.58 225,1821.5C 213.379,1801.9 201.546,1782.57 189.5,1763.5C 190.238,1759.29 191.572,1755.29 193.5,1751.5 Z"/></g>
<g><path style="opacity:0.984" fill="#0099f4" d="M 125.5,1763.5 C 138.562,1783.23 151.228,1803.23 163.5,1823.5C 163.5,1831.17 163.5,1838.83 163.5,1846.5C 150.833,1826.5 138.167,1806.5 125.5,1786.5C 125.5,1778.83 125.5,1771.17 125.5,1763.5 Z"/></g>
<g><path style="opacity:0.987" fill="#0079f4" d="M 189.5,1763.5 C 201.546,1782.57 213.379,1801.9 225,1821.5C 225.278,1820.58 225.778,1819.92 226.5,1819.5C 226.5,1826.17 226.5,1832.83 226.5,1839.5C 225.778,1839.92 225.278,1840.58 225,1841.5C 213.309,1821.43 201.143,1801.77 188.5,1782.5C 188.249,1776.11 188.582,1769.77 189.5,1763.5 Z"/></g>
<g><path style="opacity:0.984" fill="#00b8f2" d="M 62.5,1766.5 C 75.1667,1786.5 87.8333,1806.5 100.5,1826.5C 100.5,1833.17 100.5,1839.83 100.5,1846.5C 86.9174,1825.95 74.2507,1804.95 62.5,1783.5C 62.5,1777.83 62.5,1772.17 62.5,1766.5 Z"/></g>
<g><path style="opacity:0.982" fill="#00d7f3" d="M -0.5,1767.5 C 11.892,1786.6 24.0587,1805.93 36,1825.5C 36.2784,1824.58 36.7784,1823.92 37.5,1823.5C 37.5,1831.17 37.5,1838.83 37.5,1846.5C 24.4383,1826.77 11.7716,1806.77 -0.5,1786.5C -0.5,1780.17 -0.5,1773.83 -0.5,1767.5 Z"/></g>
<g><path style="opacity:0.984" fill="#0060f3" d="M 251.5,1779.5 C 252.355,1782.18 253.522,1784.84 255,1787.5C 267.333,1806.52 278.833,1825.86 289.5,1845.5C 289.5,1851.17 289.5,1856.83 289.5,1862.5C 277.359,1842.9 265.192,1823.23 253,1803.5C 252.722,1804.42 252.222,1805.08 251.5,1805.5C 251.5,1796.83 251.5,1788.17 251.5,1779.5 Z"/></g>
<g><path style="opacity:0.984" fill="#00bef2" d="M 62.5,1783.5 C 74.2507,1804.95 86.9174,1825.95 100.5,1846.5C 100.5,1853.17 100.5,1859.83 100.5,1866.5C 87.8333,1846.5 75.1667,1826.5 62.5,1806.5C 62.5,1798.83 62.5,1791.17 62.5,1783.5 Z"/></g>
<g><path style="opacity:0.99" fill="#007ff4" d="M 188.5,1782.5 C 201.143,1801.77 213.309,1821.43 225,1841.5C 225.278,1840.58 225.778,1839.92 226.5,1839.5C 226.5,1848.17 226.5,1856.83 226.5,1865.5C 214.441,1847.07 202.608,1828.4 191,1809.5C 190.098,1807.07 189.264,1804.74 188.5,1802.5C 188.5,1795.83 188.5,1789.17 188.5,1782.5 Z"/></g>
<g><path style="opacity:0.986" fill="#00ddf3" d="M -0.5,1786.5 C 11.7716,1806.77 24.4383,1826.77 37.5,1846.5C 37.5,1852.17 37.5,1857.83 37.5,1863.5C 36.7784,1863.92 36.2784,1864.58 36,1865.5C 24.3094,1845.43 12.1427,1825.77 -0.5,1806.5C -0.5,1799.83 -0.5,1793.17 -0.5,1786.5 Z"/></g>
<g><path style="opacity:0.984" fill="#009ff4" d="M 125.5,1786.5 C 138.167,1806.5 150.833,1826.5 163.5,1846.5C 163.5,1853.17 163.5,1859.83 163.5,1866.5C 151.228,1846.23 138.562,1826.23 125.5,1806.5C 125.5,1799.83 125.5,1793.17 125.5,1786.5 Z"/></g>
<g><path style="opacity:0.991" fill="#0067f3" d="M 289.5,1862.5 C 289.5,1870.17 289.5,1877.83 289.5,1885.5C 276.048,1864.92 263.382,1843.92 251.5,1822.5C 251.5,1816.83 251.5,1811.17 251.5,1805.5C 252.222,1805.08 252.722,1804.42 253,1803.5C 265.192,1823.23 277.359,1842.9 289.5,1862.5 Z"/></g>
<g><path style="opacity:0.982" fill="#00e3f3" d="M -0.5,1806.5 C 12.1427,1825.77 24.3094,1845.43 36,1865.5C 36.2784,1864.58 36.7784,1863.92 37.5,1863.5C 37.5,1872.17 37.5,1880.83 37.5,1889.5C 24.4383,1869.77 11.7716,1849.77 -0.5,1829.5C -0.5,1821.83 -0.5,1814.17 -0.5,1806.5 Z"/></g>
<g><path style="opacity:0.982" fill="#00c4f2" d="M 62.5,1806.5 C 75.1667,1826.5 87.8333,1846.5 100.5,1866.5C 100.5,1874.17 100.5,1881.83 100.5,1889.5C 98.6016,1884.37 96.1016,1879.37 93,1874.5C 83.0586,1858.27 72.8919,1842.27 62.5,1826.5C 62.5,1819.83 62.5,1813.17 62.5,1806.5 Z"/></g>
<g><path style="opacity:0.985" fill="#00a5f4" d="M 125.5,1806.5 C 138.562,1826.23 151.228,1846.23 163.5,1866.5C 163.5,1872.5 163.5,1878.5 163.5,1884.5C 161.926,1884.06 160.759,1883.06 160,1881.5C 148.725,1862.6 137.225,1843.94 125.5,1825.5C 125.5,1819.17 125.5,1812.83 125.5,1806.5 Z"/></g>
<g><path style="opacity:0.991" fill="#0086f3" d="M 188.5,1802.5 C 189.264,1804.74 190.098,1807.07 191,1809.5C 202.608,1828.4 214.441,1847.07 226.5,1865.5C 226.5,1872.17 226.5,1878.83 226.5,1885.5C 213.833,1865.5 201.167,1845.5 188.5,1825.5C 188.5,1817.83 188.5,1810.17 188.5,1802.5 Z"/></g>
<g><path style="opacity:0.988" fill="#006df3" d="M 251.5,1822.5 C 263.382,1843.92 276.048,1864.92 289.5,1885.5C 289.5,1892.17 289.5,1898.83 289.5,1905.5C 278.025,1887.23 266.525,1868.9 255,1850.5C 253.396,1847.54 252.229,1844.54 251.5,1841.5C 251.5,1835.17 251.5,1828.83 251.5,1822.5 Z"/></g>
<g><path style="opacity:0.987" fill="#00abf3" d="M 125.5,1825.5 C 137.225,1843.94 148.725,1862.6 160,1881.5C 160.759,1883.06 161.926,1884.06 163.5,1884.5C 163.581,1889.6 161.915,1893.94 158.5,1897.5C 146.192,1879.87 135.192,1861.54 125.5,1842.5C 125.5,1836.83 125.5,1831.17 125.5,1825.5 Z"/></g>
<g><path style="opacity:0.99" fill="#00caf3" d="M 62.5,1826.5 C 72.8919,1842.27 83.0586,1858.27 93,1874.5C 96.1016,1879.37 98.6016,1884.37 100.5,1889.5C 100.091,1896.96 100.757,1904.3 102.5,1911.5C 101.624,1911.63 100.957,1911.3 100.5,1910.5C 88.0587,1889.93 75.3921,1869.6 62.5,1849.5C 62.5,1841.83 62.5,1834.17 62.5,1826.5 Z"/></g>
<g><path style="opacity:0.993" fill="#008cf3" d="M 188.5,1825.5 C 201.167,1845.5 213.833,1865.5 226.5,1885.5C 226.5,1892.5 226.5,1899.5 226.5,1906.5C 214.624,1886.76 202.457,1867.09 190,1847.5C 189.617,1848.06 189.117,1848.39 188.5,1848.5C 188.5,1840.83 188.5,1833.17 188.5,1825.5 Z"/></g>
<g><path style="opacity:0.986" fill="#00eaf3" d="M -0.5,1829.5 C 11.7716,1849.77 24.4383,1869.77 37.5,1889.5C 37.5,1895.17 37.5,1900.83 37.5,1906.5C 36.7784,1906.92 36.2784,1907.58 36,1908.5C 24.3094,1888.43 12.1427,1868.77 -0.5,1849.5C -0.5,1842.83 -0.5,1836.17 -0.5,1829.5 Z"/></g>
<g><path style="opacity:0.983" fill="#0073f3" d="M 251.5,1841.5 C 252.229,1844.54 253.396,1847.54 255,1850.5C 266.525,1868.9 278.025,1887.23 289.5,1905.5C 289.5,1912.17 289.5,1918.83 289.5,1925.5C 277.359,1905.9 265.192,1886.23 253,1866.5C 252.722,1867.42 252.222,1868.08 251.5,1868.5C 251.5,1859.5 251.5,1850.5 251.5,1841.5 Z"/></g>
<g><path style="opacity:0.982" fill="#00b1f3" d="M 125.5,1842.5 C 135.192,1861.54 146.192,1879.87 158.5,1897.5C 156.244,1900.41 153.244,1902.07 149.5,1902.5C 148.178,1902.67 147.011,1902.34 146,1901.5C 139.667,1891.17 133.333,1880.83 127,1870.5C 126.722,1871.42 126.222,1872.08 125.5,1872.5C 125.5,1862.5 125.5,1852.5 125.5,1842.5 Z"/></g>
<g><path style="opacity:0.996" fill="#0092f3" d="M 226.5,1906.5 C 225.822,1911.57 224.822,1916.57 223.5,1921.5C 212.347,1902.53 200.68,1883.86 188.5,1865.5C 188.5,1859.83 188.5,1854.17 188.5,1848.5C 189.117,1848.39 189.617,1848.06 190,1847.5C 202.457,1867.09 214.624,1886.76 226.5,1906.5 Z"/></g>
<g><path style="opacity:0.982" fill="#00f0f3" d="M -0.5,1849.5 C 12.1427,1868.77 24.3094,1888.43 36,1908.5C 36.2784,1907.58 36.7784,1906.92 37.5,1906.5C 37.5,1914.17 37.5,1921.83 37.5,1929.5C 24.8333,1909.5 12.1667,1889.5 -0.5,1869.5C -0.5,1862.83 -0.5,1856.17 -0.5,1849.5 Z"/></g>
<g><path style="opacity:0.995" fill="#00d1f3" d="M 62.5,1849.5 C 75.3921,1869.6 88.0587,1889.93 100.5,1910.5C 100.957,1911.3 101.624,1911.63 102.5,1911.5C 104.892,1918.62 108.559,1924.96 113.5,1930.5C 123.571,1947.64 133.904,1964.64 144.5,1981.5C 143.833,1981.5 143.167,1981.5 142.5,1981.5C 138.605,1980.78 134.605,1980.11 130.5,1979.5C 108.331,1942.49 85.6648,1905.82 62.5,1869.5C 62.5,1862.83 62.5,1856.17 62.5,1849.5 Z"/></g>
<g><path style="opacity:0.982" fill="#005af4" d="M 314.5,1861.5 C 316.398,1866.63 318.898,1871.63 322,1876.5C 331.941,1892.73 342.108,1908.73 352.5,1924.5C 352.5,1931.17 352.5,1937.83 352.5,1944.5C 339.833,1924.5 327.167,1904.5 314.5,1884.5C 314.5,1876.83 314.5,1869.17 314.5,1861.5 Z"/></g>
<g><path style="opacity:0.992" fill="#0098f4" d="M 188.5,1865.5 C 200.68,1883.86 212.347,1902.53 223.5,1921.5C 222.455,1926.65 220.455,1931.32 217.5,1935.5C 208.858,1920.22 199.691,1905.22 190,1890.5C 189.802,1888.62 189.302,1886.95 188.5,1885.5C 188.5,1878.83 188.5,1872.17 188.5,1865.5 Z"/></g>
<g><path style="opacity:0.99" fill="#0079f3" d="M 289.5,1925.5 C 289.5,1931.83 289.5,1938.17 289.5,1944.5C 276.438,1924.77 263.772,1904.77 251.5,1884.5C 251.5,1879.17 251.5,1873.83 251.5,1868.5C 252.222,1868.08 252.722,1867.42 253,1866.5C 265.192,1886.23 277.359,1905.9 289.5,1925.5 Z"/></g>
<g><path style="opacity:0.986" fill="#00f6f3" d="M -0.5,1869.5 C 12.1667,1889.5 24.8333,1909.5 37.5,1929.5C 37.5,1935.17 37.5,1940.83 37.5,1946.5C 36.603,1947.6 35.7697,1947.6 35,1946.5C 23.6425,1927.1 11.8091,1908.1 -0.5,1889.5C -0.5,1882.83 -0.5,1876.17 -0.5,1869.5 Z"/></g>
<g><path style="opacity:0.995" fill="#00d7f3" d="M 62.5,1869.5 C 85.6648,1905.82 108.331,1942.49 130.5,1979.5C 125.112,1979.24 120.112,1977.9 115.5,1975.5C 98.6185,1946.3 80.9519,1917.63 62.5,1889.5C 62.5,1882.83 62.5,1876.17 62.5,1869.5 Z"/></g>
<g><path style="opacity:0.967" fill="#00b7f3" d="M 149.5,1902.5 C 138.467,1905.07 130.634,1901.07 126,1890.5C 125.501,1884.51 125.334,1878.51 125.5,1872.5C 126.222,1872.08 126.722,1871.42 127,1870.5C 133.333,1880.83 139.667,1891.17 146,1901.5C 147.011,1902.34 148.178,1902.67 149.5,1902.5 Z"/></g>
<g><path style="opacity:0.984" fill="#0080f3" d="M 251.5,1884.5 C 263.772,1904.77 276.438,1924.77 289.5,1944.5C 289.825,1952.35 289.492,1960.02 288.5,1967.5C 276.892,1948.05 265.059,1928.72 253,1909.5C 252.722,1910.42 252.222,1911.08 251.5,1911.5C 251.5,1902.5 251.5,1893.5 251.5,1884.5 Z"/></g>
<g><path style="opacity:0.986" fill="#0060f4" d="M 314.5,1884.5 C 327.167,1904.5 339.833,1924.5 352.5,1944.5C 352.5,1952.5 352.5,1960.5 352.5,1968.5C 352.167,1968.5 351.833,1968.5 351.5,1968.5C 351.662,1966.47 351.495,1964.47 351,1962.5C 338.273,1942.36 326.106,1922.03 314.5,1901.5C 314.5,1895.83 314.5,1890.17 314.5,1884.5 Z"/></g>
<g><path style="opacity:0.988" fill="#00fdf3" d="M -0.5,1889.5 C 11.8091,1908.1 23.6425,1927.1 35,1946.5C 35.7697,1947.6 36.603,1947.6 37.5,1946.5C 37.7248,1956.76 33.0581,1963.59 23.5,1967C 12.1123,1969.07 4.11234,1964.91 -0.5,1954.5C -0.5,1932.83 -0.5,1911.17 -0.5,1889.5 Z"/></g>
<g><path style="opacity:0.99" fill="#00def3" d="M 62.5,1889.5 C 80.9519,1917.63 98.6185,1946.3 115.5,1975.5C 88.2137,1964.71 71.047,1945.04 64,1916.5C 62.6541,1907.56 62.1541,1898.56 62.5,1889.5 Z"/></g>
<g><path style="opacity:0.988" fill="#009ff4" d="M 188.5,1885.5 C 189.302,1886.95 189.802,1888.62 190,1890.5C 199.691,1905.22 208.858,1920.22 217.5,1935.5C 216.502,1939.51 214.502,1942.84 211.5,1945.5C 203.748,1932.32 195.748,1919.32 187.5,1906.5C 188.386,1899.54 188.72,1892.54 188.5,1885.5 Z"/></g>
<g><path style="opacity:0.975" fill="#0066f4" d="M 314.5,1901.5 C 326.106,1922.03 338.273,1942.36 351,1962.5C 351.495,1964.47 351.662,1966.47 351.5,1968.5C 350.306,1972.36 347.973,1975.36 344.5,1977.5C 335.521,1960.21 325.521,1943.54 314.5,1927.5C 314.5,1918.83 314.5,1910.17 314.5,1901.5 Z"/></g>
<g><path style="opacity:0.983" fill="#00a5f3" d="M 187.5,1906.5 C 195.748,1919.32 203.748,1932.32 211.5,1945.5C 209.984,1948.53 207.984,1951.2 205.5,1953.5C 198.442,1943.07 191.608,1932.4 185,1921.5C 184.23,1920.4 183.397,1920.4 182.5,1921.5C 184.763,1916.71 186.43,1911.71 187.5,1906.5 Z"/></g>
<g><path style="opacity:0.983" fill="#0086f4" d="M 288.5,1967.5 C 287.757,1971.92 285.424,1975.25 281.5,1977.5C 272.018,1960.54 262.018,1943.87 251.5,1927.5C 251.5,1922.17 251.5,1916.83 251.5,1911.5C 252.222,1911.08 252.722,1910.42 253,1909.5C 265.059,1928.72 276.892,1948.05 288.5,1967.5 Z"/></g>
<g><path style="opacity:0.987" fill="#00abf3" d="M 205.5,1953.5 C 203.167,1956.5 200.5,1959.17 197.5,1961.5C 190.299,1950.42 183.633,1939.09 177.5,1927.5C 179.177,1925.46 180.844,1923.46 182.5,1921.5C 183.397,1920.4 184.23,1920.4 185,1921.5C 191.608,1932.4 198.442,1943.07 205.5,1953.5 Z"/></g>
<g><path style="opacity:0.975" fill="#008cf4" d="M 251.5,1927.5 C 262.018,1943.87 272.018,1960.54 281.5,1977.5C 278.712,1979.98 275.378,1980.98 271.5,1980.5C 265.584,1968.99 258.917,1957.99 251.5,1947.5C 251.5,1940.83 251.5,1934.17 251.5,1927.5 Z"/></g>
<g><path style="opacity:0.978" fill="#006ef4" d="M 314.5,1927.5 C 325.521,1943.54 335.521,1960.21 344.5,1977.5C 341.468,1979.67 338.134,1981 334.5,1981.5C 333.833,1981.5 333.167,1981.5 332.5,1981.5C 325.049,1980.34 319.549,1976.34 316,1969.5C 314.571,1955.56 314.071,1941.56 314.5,1927.5 Z"/></g>
<g><path style="opacity:0.986" fill="#01b2f3" d="M 177.5,1927.5 C 183.633,1939.09 190.299,1950.42 197.5,1961.5C 194.725,1964.6 191.392,1966.94 187.5,1968.5C 180.833,1957.83 174.167,1947.17 167.5,1936.5C 170.859,1933.47 174.192,1930.47 177.5,1927.5 Z"/></g>
<g><path style="opacity:0.981" fill="#00cbf3" d="M 113.5,1930.5 C 119.77,1935.47 126.77,1939.14 134.5,1941.5C 142.14,1954.15 149.806,1966.82 157.5,1979.5C 153.5,1980.17 149.5,1980.83 145.5,1981.5C 145.167,1981.5 144.833,1981.5 144.5,1981.5C 133.904,1964.64 123.571,1947.64 113.5,1930.5 Z"/></g>
<g><path style="opacity:0.989" fill="#00b8f3" d="M 167.5,1936.5 C 174.167,1947.17 180.833,1957.83 187.5,1968.5C 184.753,1971.21 181.42,1972.87 177.5,1973.5C 171.419,1962.34 165.086,1951.34 158.5,1940.5C 161.378,1938.89 164.378,1937.56 167.5,1936.5 Z"/></g>
<g><path style="opacity:0.986" fill="#00c4f3" d="M 134.5,1941.5 C 138.785,1942.29 143.119,1942.63 147.5,1942.5C 154.237,1954.3 161.237,1965.97 168.5,1977.5C 164.929,1978.64 161.262,1979.31 157.5,1979.5C 149.806,1966.82 142.14,1954.15 134.5,1941.5 Z"/></g>
<g><path style="opacity:0.986" fill="#00bef3" d="M 158.5,1940.5 C 165.086,1951.34 171.419,1962.34 177.5,1973.5C 174.912,1975.59 171.912,1976.93 168.5,1977.5C 161.237,1965.97 154.237,1954.3 147.5,1942.5C 151.221,1942.09 154.888,1941.42 158.5,1940.5 Z"/></g>
<g><path style="opacity:0.955" fill="#0092f4" d="M 251.5,1947.5 C 258.917,1957.99 265.584,1968.99 271.5,1980.5C 271.5,1980.83 271.5,1981.17 271.5,1981.5C 270.833,1981.5 270.167,1981.5 269.5,1981.5C 260.513,1980.36 254.679,1975.36 252,1966.5C 251.5,1960.18 251.334,1953.84 251.5,1947.5 Z"/></g>
</svg>
